<svg width="32" height="32" viewBox="0 0 32 32" fill="none" xmlns="http://www.w3.org/2000/svg">
  <!-- Background circle with gradient -->
  <defs>
    <linearGradient id="bgGradient" x1="0%" y1="0%" x2="100%" y2="100%">
      <stop offset="0%" style="stop-color:#2563eb;stop-opacity:1" />
      <stop offset="100%" style="stop-color:#1e40af;stop-opacity:1" />
    </linearGradient>
    <linearGradient id="accentGradient" x1="0%" y1="0%" x2="100%" y2="100%">
      <stop offset="0%" style="stop-color:#f59e0b;stop-opacity:1" />
      <stop offset="100%" style="stop-color:#d97706;stop-opacity:1" />
    </linearGradient>
  </defs>
  
  <!-- Background -->
  <circle cx="16" cy="16" r="16" fill="url(#bgGradient)"/>
  
  <!-- Tree/Growth symbol representing "Mizizi" (roots in Swahili) -->
  <g transform="translate(8, 6)">
    <!-- Tree trunk -->
    <rect x="7" y="14" width="2" height="6" fill="url(#accentGradient)" rx="1"/>
    
    <!-- Tree canopy/growth layers -->
    <circle cx="8" cy="12" r="3" fill="url(#accentGradient)" opacity="0.9"/>
    <circle cx="6" cy="10" r="2.5" fill="url(#accentGradient)" opacity="0.7"/>
    <circle cx="10" cy="10" r="2.5" fill="url(#accentGradient)" opacity="0.7"/>
    <circle cx="8" cy="8" r="2" fill="url(#accentGradient)" opacity="0.8"/>
    
    <!-- Roots/foundation lines -->
    <path d="M7 20 L4 22 M9 20 L12 22 M8 20 L8 22" stroke="url(#accentGradient)" stroke-width="1.5" stroke-linecap="round" opacity="0.6"/>
  </g>
  
  <!-- Scale/Growth arrows -->
  <g transform="translate(20, 8)">
    <path d="M2 8 L6 4 L6 6 L10 6 L10 8 L6 8 L6 10 Z" fill="white" opacity="0.9"/>
    <path d="M2 12 L6 8 L6 10 L10 10 L10 12 L6 12 L6 14 Z" fill="white" opacity="0.7"/>
  </g>
</svg>